# xmcd
#
# Track frame offsets:
#	150
#	26576
#	52798
#	96332
#	118508
#	136057
#	163158
#	181558
#	200160
#	251369
#	255625
#	267276
#	287309
#
# Disc length: 4215 seconds
#
# Revision: 1
# Processed by: cddbd v1.5.2PL0 Copyright (c) Steve Scherf et al.
# Submitted via: audiograbber 1.83.01
#
DISCID=aa10750d
DTITLE=Dan Patlansky - Move My Soul
DYEAR=2009
DGENRE=Blues
TTITLE0=Jump On
TTITLE1=Why?
TTITLE2=Big Things Going Down
TTITLE3=Insufficient Man
TTITLE4=Peace of Eden
TTITLE5=Move My Soul
TTITLE6=You Upset Me
TTITLE7=Come and Play
TTITLE8=Luca
TTITLE9=Lord You Are Beautiful
TTITLE10=That's Alright Mama
TTITLE11=Backside of Paradise
TTITLE12=Namaste/Love City
EXTD=
EXTT0=
EXTT1=
EXTT2=
EXTT3=
EXTT4=
EXTT5=
EXTT6=
EXTT7=
EXTT8=
EXTT9=
EXTT10=
EXTT11=
EXTT12=
PLAYORDER=
